<svg width="139" height="31" viewBox="0 0 139 31" fill="none" xmlns="http://www.w3.org/2000/svg">
<path d="M10.4 30.48C8.42667 30.48 6.72 30.0133 5.28 29.08C3.84 28.12 2.73333 26.8267 1.96 25.2C1.18667 23.5733 0.8 21.7733 0.8 19.8C0.8 17.8 1.22667 16 2.08 14.4C2.93333 12.7733 4.16 11.4933 5.76 10.56C7.36 9.6 9.28 9.12 11.52 9.12C13.68 9.12 15.5333 9.58667 17.08 10.52C18.6267 11.4533 19.8133 12.72 20.64 14.32C21.4933 15.92 21.92 17.7067 21.92 19.68V30H18.2V25.84H18.12C17.72 26.6133 17.1733 27.36 16.48 28.08C15.8133 28.7733 14.9733 29.3467 13.96 29.8C12.9467 30.2533 11.76 30.48 10.4 30.48ZM11.36 27.32C12.6933 27.32 13.8667 27 14.88 26.36C15.92 25.6933 16.72 24.7867 17.28 23.64C17.8667 22.4667 18.16 21.16 18.16 19.72C18.16 18.3067 17.88 17.04 17.32 15.92C16.7867 14.8 16.0133 13.92 15 13.28C13.9867 12.6133 12.8 12.28 11.44 12.28C10 12.28 8.76 12.6133 7.72 13.28C6.70667 13.9467 5.92 14.8533 5.36 16C4.82667 17.12 4.56 18.4 4.56 19.84C4.56 21.2267 4.82667 22.4933 5.36 23.64C5.89333 24.76 6.66667 25.6533 7.68 26.32C8.69333 26.9867 9.92 27.32 11.36 27.32ZM73.17 30V17.72C73.17 16.1467 73.53 14.7067 74.25 13.4C74.97 12.0933 76.01 11.0533 77.37 10.28C78.73 9.50667 80.37 9.12 82.29 9.12C83.2233 9.12 84.1567 9.25333 85.09 9.52C86.0233 9.76 86.89 10.1867 87.69 10.8C88.49 11.3867 89.13 12.1867 89.61 13.2H89.65C90.1833 12.1867 90.85 11.3867 91.65 10.8C92.45 10.1867 93.3167 9.76 94.25 9.52C95.1833 9.25333 96.13 9.12 97.09 9.12C98.9833 9.12 100.61 9.50667 101.97 10.28C103.33 11.0533 104.37 12.0933 105.09 13.4C105.81 14.7067 106.17 16.1467 106.17 17.72V30H102.49V17.72C102.49 16.7067 102.25 15.7867 101.77 14.96C101.29 14.1333 100.637 13.48 99.81 13C99.01 12.52 98.09 12.28 97.05 12.28C96.0367 12.28 95.1033 12.5333 94.25 13.04C93.3967 13.52 92.7167 14.1733 92.21 15C91.73 15.8 91.49 16.7067 91.49 17.72V30H87.81V17.72C87.81 16.7067 87.5567 15.8 87.05 15C86.57 14.1733 85.9033 13.52 85.05 13.04C84.2233 12.5333 83.29 12.28 82.25 12.28C81.2367 12.28 80.3167 12.52 79.49 13C78.69 13.48 78.05 14.1333 77.57 14.96C77.09 15.7867 76.85 16.7067 76.85 17.72V30H73.17ZM136.051 30.4C135.331 30.4 134.704 30.1467 134.171 29.64C133.664 29.1067 133.411 28.48 133.411 27.76C133.411 27.04 133.664 26.4267 134.171 25.92C134.704 25.3867 135.331 25.12 136.051 25.12C136.771 25.12 137.384 25.3867 137.891 25.92C138.424 26.4267 138.691 27.04 138.691 27.76C138.691 28.24 138.571 28.68 138.331 29.08C138.117 29.48 137.811 29.8 137.411 30.04C137.011 30.28 136.557 30.4 136.051 30.4Z" fill="#FF5C00"/>
<path d="M27.4994 30V26.84H37.2594C37.8994 26.84 38.446 26.7067 38.8994 26.44C39.3794 26.1467 39.7394 25.7733 39.9794 25.32C40.2194 24.8667 40.3394 24.3867 40.3394 23.88C40.3394 23.4 40.2327 22.96 40.0194 22.56C39.806 22.1333 39.4727 21.8 39.0194 21.56C38.5927 21.2933 38.0727 21.16 37.4594 21.16H33.3394C32.0327 21.16 30.886 20.9467 29.8994 20.52C28.9394 20.0667 28.1794 19.4133 27.6194 18.56C27.086 17.7067 26.8194 16.6667 26.8194 15.44C26.8194 14.4 27.0727 13.44 27.5794 12.56C28.086 11.68 28.7927 10.9733 29.6994 10.44C30.606 9.88 31.646 9.6 32.8194 9.6H42.2194V12.76H33.1794C32.3527 12.76 31.6994 13.0133 31.2194 13.52C30.7394 14.0267 30.4994 14.6267 30.4994 15.32C30.4994 15.9867 30.7394 16.5733 31.2194 17.08C31.726 17.56 32.4327 17.8 33.3394 17.8H37.2594C38.726 17.8 39.9527 18.04 40.9394 18.52C41.9527 18.9733 42.7127 19.64 43.2194 20.52C43.7527 21.4 44.0194 22.48 44.0194 23.76C44.0194 24.8533 43.7527 25.88 43.2194 26.84C42.686 27.7733 41.9394 28.5333 40.9794 29.12C40.046 29.7067 38.9527 30 37.6994 30H27.4994ZM48.8731 30V0.799999H52.5531V18.16H58.1531L63.5131 9.6H67.5931L61.7931 18.72C63.7131 19.28 65.2065 20.3333 66.2731 21.88C67.3665 23.4 67.9131 25.1733 67.9131 27.2V30H64.1931V27.2C64.1931 26.08 63.9398 25.08 63.4331 24.2C62.9531 23.32 62.2731 22.6267 61.3931 22.12C60.5131 21.5867 59.4998 21.32 58.3531 21.32H52.5531V30H48.8731ZM122.358 30C120.118 30 118.131 29.5867 116.398 28.76C114.665 27.9067 113.305 26.72 112.318 25.2C111.358 23.6533 110.878 21.8533 110.878 19.8C110.878 17.7733 111.291 15.96 112.118 14.36C112.945 12.7333 114.091 11.4533 115.558 10.52C117.025 9.58667 118.731 9.12 120.678 9.12C122.785 9.12 124.531 9.57333 125.918 10.48C127.331 11.3867 128.385 12.6133 129.078 14.16C129.771 15.68 130.118 17.3867 130.118 19.28C130.118 19.5733 130.105 19.88 130.078 20.2C130.078 20.52 130.051 20.8 129.998 21.04H114.798C114.931 22.2933 115.345 23.36 116.038 24.24C116.731 25.0933 117.611 25.7467 118.678 26.2C119.771 26.6267 120.971 26.84 122.278 26.84H127.598V30H122.358ZM114.758 18.44H126.398C126.398 17.9333 126.345 17.4 126.238 16.84C126.131 16.2533 125.945 15.6933 125.678 15.16C125.411 14.6 125.051 14.1067 124.598 13.68C124.171 13.2267 123.625 12.8667 122.958 12.6C122.318 12.3333 121.558 12.2 120.678 12.2C119.745 12.2 118.918 12.3867 118.198 12.76C117.505 13.1067 116.905 13.5867 116.398 14.2C115.891 14.7867 115.505 15.4533 115.238 16.2C114.971 16.9467 114.811 17.6933 114.758 18.44Z" fill="#447BBA"/>
</svg>
